<svg width="24" height="24" viewBox="0 0 24 24" fill="none" xmlns="http://www.w3.org/2000/svg">
<path d="M19.6027 7.73713L12.5752 14.6536C12.4219 14.8053 12.2149 14.8904 11.9992 14.8904C11.7835 14.8904 11.5765 14.8053 11.4232 14.6536L4.39569 7.73863C4.24141 7.58702 4.03375 7.50206 3.81744 7.50206C3.60113 7.50206 3.39347 7.58702 3.23919 7.73863C3.16322 7.8127 3.10284 7.90122 3.06161 7.99899C3.02039 8.09675 2.99915 8.20178 2.99915 8.30788C2.99915 8.41398 3.02039 8.51901 3.06161 8.61678C3.10284 8.71454 3.16322 8.80307 3.23919 8.87713L10.2652 15.7921C10.728 16.2465 11.3506 16.5011 11.9992 16.5011C12.6478 16.5011 13.2704 16.2465 13.7332 15.7921L20.7592 8.87713C20.8354 8.80304 20.896 8.71443 20.9373 8.61652C20.9787 8.51862 21 8.41341 21 8.30713C21 8.20085 20.9787 8.09565 20.9373 7.99774C20.896 7.89984 20.8354 7.81122 20.7592 7.73713C20.6049 7.58552 20.3972 7.50056 20.1809 7.50056C19.9646 7.50056 19.757 7.58552 19.6027 7.73713Z" fill="black"/>
</svg>
