<svg width="24" height="25" viewBox="0 0 24 25" fill="none" xmlns="http://www.w3.org/2000/svg">
<path d="M19.9 13.284C19.7397 13.1016 19.6513 12.8669 19.6513 12.624C19.6513 12.3811 19.7397 12.1465 19.9 11.964L21.18 10.524C21.3211 10.3667 21.4087 10.1687 21.4302 9.95855C21.4518 9.74835 21.4062 9.53673 21.3 9.35404L19.3 5.89404C19.1949 5.71156 19.0349 5.56692 18.8428 5.48073C18.6506 5.39454 18.4362 5.3712 18.23 5.41404L16.35 5.79404C16.1108 5.84347 15.8618 5.80363 15.6499 5.68204C15.438 5.56045 15.278 5.36552 15.2 5.13404L14.59 3.30404C14.5229 3.10542 14.3951 2.93291 14.2246 2.81088C14.0542 2.68886 13.8497 2.6235 13.64 2.62404H9.64002C9.42195 2.61266 9.20615 2.67297 9.02558 2.79575C8.84501 2.91854 8.7096 3.09706 8.64002 3.30404L8.08002 5.13404C8.00202 5.36552 7.84199 5.56045 7.63013 5.68204C7.41827 5.80363 7.16924 5.84347 6.93002 5.79404L5.00002 5.41404C4.80457 5.38642 4.60532 5.41726 4.42737 5.50268C4.24941 5.5881 4.10072 5.72427 4.00002 5.89404L2.00002 9.35404C1.89118 9.53469 1.84224 9.74513 1.8602 9.95526C1.87816 10.1654 1.9621 10.3645 2.10002 10.524L3.37002 11.964C3.53034 12.1465 3.61875 12.3811 3.61875 12.624C3.61875 12.8669 3.53034 13.1016 3.37002 13.284L2.10002 14.724C1.9621 14.8836 1.87816 15.0827 1.8602 15.2928C1.84224 15.503 1.89118 15.7134 2.00002 15.894L4.00002 19.354C4.10512 19.5365 4.26514 19.6812 4.45727 19.7674C4.6494 19.8535 4.86384 19.8769 5.07002 19.834L6.95002 19.454C7.18924 19.4046 7.43827 19.4445 7.65013 19.566C7.86199 19.6876 8.02202 19.8826 8.10002 20.114L8.71002 21.944C8.7796 22.151 8.91501 22.3295 9.09558 22.4523C9.27615 22.5751 9.49195 22.6354 9.71002 22.624H13.71C13.9197 22.6246 14.1242 22.5592 14.2946 22.4372C14.4651 22.3152 14.5929 22.1427 14.66 21.944L15.27 20.114C15.348 19.8826 15.508 19.6876 15.7199 19.566C15.9318 19.4445 16.1808 19.4046 16.42 19.454L18.3 19.834C18.5062 19.8769 18.7206 19.8535 18.9128 19.7674C19.1049 19.6812 19.2649 19.5365 19.37 19.354L21.37 15.894C21.4762 15.7114 21.5218 15.4997 21.5002 15.2895C21.4787 15.0793 21.3911 14.8814 21.25 14.724L19.9 13.284ZM18.41 14.624L19.21 15.524L17.93 17.744L16.75 17.504C16.0298 17.3568 15.2806 17.4792 14.6446 17.8478C14.0086 18.2165 13.5302 18.8059 13.3 19.504L12.92 20.624H10.36L10 19.484C9.76987 18.7859 9.2914 18.1965 8.65542 17.8278C8.01945 17.4592 7.27024 17.3368 6.55002 17.484L5.37002 17.724L4.07002 15.514L4.87002 14.614C5.36197 14.064 5.63395 13.352 5.63395 12.614C5.63395 11.8761 5.36197 11.1641 4.87002 10.614L4.07002 9.71404L5.35002 7.51404L6.53002 7.75404C7.25024 7.90126 7.99945 7.77892 8.63542 7.41024C9.2714 7.04156 9.74987 6.4522 9.98002 5.75404L10.36 4.62404H12.92L13.3 5.76404C13.5302 6.4622 14.0086 7.05156 14.6446 7.42024C15.2806 7.78892 16.0298 7.91126 16.75 7.76404L17.93 7.52404L19.21 9.74404L18.41 10.644C17.9236 11.1928 17.655 11.9007 17.655 12.634C17.655 13.3674 17.9236 14.0753 18.41 14.624ZM11.64 8.62404C10.8489 8.62404 10.0755 8.85864 9.41774 9.29816C8.75994 9.73769 8.24725 10.3624 7.9445 11.0933C7.64175 11.8242 7.56254 12.6285 7.71688 13.4044C7.87122 14.1803 8.25218 14.8931 8.81159 15.4525C9.371 16.0119 10.0837 16.3928 10.8597 16.5472C11.6356 16.7015 12.4398 16.6223 13.1708 16.3196C13.9017 16.0168 14.5264 15.5041 14.9659 14.8463C15.4054 14.1885 15.64 13.4152 15.64 12.624C15.64 11.5632 15.2186 10.5458 14.4684 9.79561C13.7183 9.04547 12.7009 8.62404 11.64 8.62404ZM11.64 14.624C11.2445 14.624 10.8578 14.5067 10.5289 14.287C10.2 14.0672 9.94363 13.7549 9.79226 13.3894C9.64088 13.024 9.60128 12.6218 9.67845 12.2339C9.75562 11.8459 9.9461 11.4895 10.2258 11.2098C10.5055 10.9301 10.8619 10.7396 11.2498 10.6625C11.6378 10.5853 12.0399 10.6249 12.4054 10.7763C12.7708 10.9277 13.0832 11.184 13.303 11.5129C13.5227 11.8418 13.64 12.2285 13.64 12.624C13.64 13.1545 13.4293 13.6632 13.0542 14.0383C12.6792 14.4133 12.1705 14.624 11.64 14.624Z" fill="white"/>
</svg>
