<svg width="19" height="20" viewBox="0 0 18 19" fill="none" xmlns="http://www.w3.org/2000/svg">
<path d="M12.8575 6.63855C13.1416 6.16497 12.9881 5.55071 12.5145 5.26656C12.0409 4.98241 11.4267 5.13598 11.1425 5.60956L8.20146 10.5113L6.70711 9.01695C6.31658 8.62642 5.68342 8.62642 5.29289 9.01695C4.90237 9.40747 4.90237 10.0406 5.29289 10.4312L7.69289 12.8312C7.91064 13.0489 8.21655 13.1542 8.52218 13.1166C8.82781 13.0789 9.09906 12.9026 9.25749 12.6385L12.8575 6.63855Z" fill="white"/>
<path fill-rule="evenodd" clip-rule="evenodd" d="M5 0.124023C2.23858 0.124023 0 2.3626 0 5.12403V13.124C0 15.8854 2.23858 18.124 5 18.124H13C15.7614 18.124 18 15.8854 18 13.124V5.12402C18 2.3626 15.7614 0.124023 13 0.124023H5ZM2 5.12403C2 3.46717 3.34315 2.12402 5 2.12402H13C14.6569 2.12402 16 3.46717 16 5.12402V13.124C16 14.7809 14.6569 16.124 13 16.124H5C3.34315 16.124 2 14.7809 2 13.124V5.12403Z" fill="white"/>
</svg>
