<svg width="23" height="24" viewBox="0 0 24 25" fill="none" xmlns="http://www.w3.org/2000/svg">
<path d="M10.359 1.62005C10.8244 1.24722 11.4029 1.04407 11.9992 1.04407C12.5956 1.04407 13.1741 1.24722 13.6395 1.62005L21.5145 7.92005C22.137 8.41805 22.5 9.17255 22.5 9.97055V20.4991C22.5 21.1952 22.2234 21.8629 21.7312 22.3552C21.2389 22.8475 20.5712 23.1241 19.875 23.1241H14.625C14.3266 23.1241 14.0405 23.0055 13.8295 22.7945C13.6185 22.5836 13.5 22.2974 13.5 21.9991V14.1241H10.5V21.9991C10.5 22.2974 10.3815 22.5836 10.1705 22.7945C9.95952 23.0055 9.67337 23.1241 9.375 23.1241H4.125C3.42881 23.1241 2.76113 22.8475 2.26884 22.3552C1.77656 21.8629 1.5 21.1952 1.5 20.4991V9.96905C1.5 9.17255 1.863 8.41805 2.4855 7.92005L10.359 1.62005ZM12.234 3.37655C12.1676 3.32349 12.085 3.29458 12 3.29458C11.915 3.29458 11.8324 3.32349 11.766 3.37655L3.891 9.67655C3.84688 9.71178 3.81129 9.75652 3.78687 9.80742C3.76246 9.85833 3.74985 9.91409 3.75 9.97055V20.4991C3.75 20.7061 3.918 20.8741 4.125 20.8741H8.25V12.9991C8.25 12.7007 8.36853 12.4145 8.5795 12.2036C8.79048 11.9926 9.07663 11.8741 9.375 11.8741H14.625C14.9234 11.8741 15.2095 11.9926 15.4205 12.2036C15.6315 12.4145 15.75 12.7007 15.75 12.9991V20.8741H19.875C19.9745 20.8741 20.0698 20.8345 20.1402 20.7642C20.2105 20.6939 20.25 20.5985 20.25 20.4991V9.96905C20.2499 9.91284 20.2372 9.85738 20.2128 9.80675C20.1884 9.75612 20.1529 9.71162 20.109 9.67655L12.234 3.37655Z" fill="white"/>
</svg>
