<svg width="25" height="25" viewBox="0 0 25 25" fill="none" xmlns="http://www.w3.org/2000/svg">
<path d="M21.4187 21.0168L15.4187 15.0168M3.4187 10.0168C3.4187 10.9361 3.59976 11.8464 3.95154 12.6956C4.30333 13.5449 4.81894 14.3166 5.46895 14.9666C6.11896 15.6166 6.89064 16.1322 7.73992 16.484C8.5892 16.8358 9.49945 17.0168 10.4187 17.0168C11.338 17.0168 12.2482 16.8358 13.0975 16.484C13.9468 16.1322 14.7184 15.6166 15.3684 14.9666C16.0185 14.3166 16.5341 13.5449 16.8859 12.6956C17.2376 11.8464 17.4187 10.9361 17.4187 10.0168C17.4187 9.09759 17.2376 8.18734 16.8859 7.33806C16.5341 6.48878 16.0185 5.71711 15.3684 5.0671C14.7184 4.41709 13.9468 3.90147 13.0975 3.54969C12.2482 3.19791 11.338 3.01685 10.4187 3.01685C9.49945 3.01685 8.5892 3.19791 7.73992 3.54969C6.89064 3.90147 6.11896 4.41709 5.46895 5.0671C4.81894 5.71711 4.30333 6.48878 3.95154 7.33806C3.59976 8.18734 3.4187 9.09759 3.4187 10.0168Z" stroke="white" stroke-width="2" stroke-linecap="round" stroke-linejoin="round"/>
</svg>
